<?xml version="1.0" encoding="utf-8"?>
<!-- Generator: Adobe Illustrator 26.5.0, SVG Export Plug-In . SVG Version: 6.00 Build 0)  -->
<svg version="1.1" id="Layer_1" xmlns="http://www.w3.org/2000/svg" xmlns:xlink="http://www.w3.org/1999/xlink" x="0px" y="0px"
	 viewBox="0 0 500 500" style="enable-background:new 0 0 500 500;" xml:space="preserve">
<style type="text/css">
	.st0{opacity:0.52;fill:#D4F0F5;enable-background:new    ;}
	.st1{opacity:0.79;}
	.st2{fill:#FFFFFF;}
	.st3{clip-path:url(#SVGID_00000054945301761697416270000017506371119632951946_);}
	.st4{fill:#D4F0F5;}
	.st5{clip-path:url(#SVGID_00000013885715233357637250000001414403736071738006_);}
	.st6{fill:#B9E5EE;}
	.st7{fill:#92D5E4;}
	.st8{fill:#2EA8BC;}
	.st9{fill:#FFFFFF;stroke:#2EA8BC;stroke-miterlimit:10;}
	.st10{opacity:0.46;}
	.st11{opacity:0.61;}
	.st12{clip-path:url(#SVGID_00000057847887096434349310000015606176388853616536_);}
	.st13{fill:#38303B;}
	.st14{fill:#F7B094;}
	.st15{fill:#E89C82;}
	.st16{opacity:0.54;}
	.st17{fill:#ED825D;}
	.st18{fill:#F4F6F9;}
</style>
<g id="OBJECTS">
	<circle class="st0" cx="250" cy="250" r="221.6"/>
	<g>
		<g class="st1">
			<g>
				<g>
					<path class="st2" d="M274.3,86.6c2.6,2.6,2.6,6.9,0,9.6s-6.9,2.6-9.6,0s-2.6-6.9,0-9.6S271.6,84,274.3,86.6z"/>
				</g>
				<g>
					<path class="st2" d="M274.3,108.2c2.6,2.6,2.6,6.9,0,9.6s-6.9,2.6-9.6,0s-2.6-6.9,0-9.6S271.6,105.6,274.3,108.2z"/>
				</g>
				<g>
					<path class="st2" d="M274.3,129.8c2.6,2.6,2.6,6.9,0,9.6s-6.9,2.6-9.6,0s-2.6-6.9,0-9.6C267.4,127.1,271.6,127.1,274.3,129.8z"
						/>
				</g>
				<g>
					<path class="st2" d="M274.3,151.4c2.6,2.6,2.6,6.9,0,9.6s-6.9,2.6-9.6,0s-2.6-6.9,0-9.6S271.6,148.7,274.3,151.4z"/>
				</g>
				<g>
					<path class="st2" d="M274.3,173c2.6,2.6,2.6,6.9,0,9.6s-6.9,2.6-9.6,0s-2.6-6.9,0-9.6S271.6,170.3,274.3,173z"/>
				</g>
			</g>
			<g>
				<g>
					<path class="st2" d="M295.6,86.6c2.6,2.6,2.6,6.9,0,9.6s-6.9,2.6-9.6,0s-2.6-6.9,0-9.6S293,84,295.6,86.6z"/>
				</g>
				<g>
					<path class="st2" d="M295.6,108.2c2.6,2.6,2.6,6.9,0,9.6s-6.9,2.6-9.6,0s-2.6-6.9,0-9.6S293,105.6,295.6,108.2z"/>
				</g>
				<g>
					<path class="st2" d="M295.6,129.8c2.6,2.6,2.6,6.9,0,9.6s-6.9,2.6-9.6,0s-2.6-6.9,0-9.6C288.7,127.1,293,127.1,295.6,129.8z"/>
				</g>
				<g>
					<path class="st2" d="M295.6,151.4c2.6,2.6,2.6,6.9,0,9.6s-6.9,2.6-9.6,0s-2.6-6.9,0-9.6S293,148.7,295.6,151.4z"/>
				</g>
				<g>
					<path class="st2" d="M295.6,173c2.6,2.6,2.6,6.9,0,9.6s-6.9,2.6-9.6,0s-2.6-6.9,0-9.6S293,170.3,295.6,173z"/>
				</g>
			</g>
			<g>
				<g>
					<path class="st2" d="M317.4,86.6c2.6,2.6,2.6,6.9,0,9.6s-6.9,2.6-9.6,0s-2.6-6.9,0-9.6S314.7,84,317.4,86.6z"/>
				</g>
				<g>
					<path class="st2" d="M317.4,108.2c2.6,2.6,2.6,6.9,0,9.6s-6.9,2.6-9.6,0s-2.6-6.9,0-9.6S314.7,105.6,317.4,108.2z"/>
				</g>
				<g>
					<path class="st2" d="M317.4,129.8c2.6,2.6,2.6,6.9,0,9.6s-6.9,2.6-9.6,0s-2.6-6.9,0-9.6C310.5,127.1,314.7,127.1,317.4,129.8z"
						/>
				</g>
				<g>
					<path class="st2" d="M317.4,151.4c2.6,2.6,2.6,6.9,0,9.6s-6.9,2.6-9.6,0s-2.6-6.9,0-9.6S314.7,148.7,317.4,151.4z"/>
				</g>
				<g>
					<path class="st2" d="M317.4,173c2.6,2.6,2.6,6.9,0,9.6s-6.9,2.6-9.6,0s-2.6-6.9,0-9.6S314.7,170.3,317.4,173z"/>
				</g>
			</g>
			<g>
				<g>
					<path class="st2" d="M338.7,86.6c2.6,2.6,2.6,6.9,0,9.6s-6.9,2.6-9.6,0s-2.6-6.9,0-9.6C331.8,84,336.1,84,338.7,86.6z"/>
				</g>
				<g>
					<path class="st2" d="M338.7,108.2c2.6,2.6,2.6,6.9,0,9.6s-6.9,2.6-9.6,0s-2.6-6.9,0-9.6C331.8,105.6,336.1,105.6,338.7,108.2z"
						/>
				</g>
				<g>
					<path class="st2" d="M338.7,129.8c2.6,2.6,2.6,6.9,0,9.6s-6.9,2.6-9.6,0s-2.6-6.9,0-9.6C331.8,127.1,336.1,127.1,338.7,129.8z"
						/>
				</g>
				<g>
					<path class="st2" d="M338.7,151.4c2.6,2.6,2.6,6.9,0,9.6s-6.9,2.6-9.6,0s-2.6-6.9,0-9.6C331.8,148.7,336.1,148.7,338.7,151.4z"
						/>
				</g>
				<g>
					<path class="st2" d="M338.7,173c2.6,2.6,2.6,6.9,0,9.6s-6.9,2.6-9.6,0s-2.6-6.9,0-9.6C331.8,170.3,336.1,170.3,338.7,173z"/>
				</g>
			</g>
			<g>
				<g>
					<path class="st2" d="M359.4,86.6c2.6,2.6,2.6,6.9,0,9.6s-6.9,2.6-9.6,0s-2.6-6.9,0-9.6S356.8,84,359.4,86.6z"/>
				</g>
				<g>
					<path class="st2" d="M359.4,108.2c2.6,2.6,2.6,6.9,0,9.6s-6.9,2.6-9.6,0s-2.6-6.9,0-9.6S356.8,105.6,359.4,108.2z"/>
				</g>
				<g>
					<path class="st2" d="M359.4,129.8c2.6,2.6,2.6,6.9,0,9.6s-6.9,2.6-9.6,0s-2.6-6.9,0-9.6C352.5,127.1,356.8,127.1,359.4,129.8z"
						/>
				</g>
				<g>
					<path class="st2" d="M359.4,151.4c2.6,2.6,2.6,6.9,0,9.6s-6.9,2.6-9.6,0s-2.6-6.9,0-9.6S356.8,148.7,359.4,151.4z"/>
				</g>
				<g>
					<path class="st2" d="M359.4,173c2.6,2.6,2.6,6.9,0,9.6s-6.9,2.6-9.6,0s-2.6-6.9,0-9.6S356.8,170.3,359.4,173z"/>
				</g>
			</g>
		</g>
		<g>
			<g>
				<defs>
					<path id="SVGID_1_" d="M451.2,302.5c29.8,9.4,46.3,41.2,36.9,70.9c-9.4,29.8-41.2,46.3-71,36.9c-29.8-9.4-46.3-41.2-36.9-70.9
						S421.4,293.1,451.2,302.5z"/>
				</defs>
				<clipPath id="SVGID_00000068670810860763422220000012225339360594578581_">
					<use xlink:href="#SVGID_1_"  style="overflow:visible;"/>
				</clipPath>
				<g style="clip-path:url(#SVGID_00000068670810860763422220000012225339360594578581_);">
					
						<rect x="303.4" y="335.3" transform="matrix(0.5373 -0.8434 0.8434 0.5373 -109.3425 477.3585)" class="st2" width="154" height="6.1"/>
					
						<rect x="318.8" y="340.1" transform="matrix(0.5373 -0.8434 0.8434 0.5373 -106.3019 492.6438)" class="st2" width="154" height="6.1"/>
					
						<rect x="334.3" y="345" transform="matrix(0.5373 -0.8434 0.8434 0.5373 -103.2615 507.9301)" class="st2" width="154" height="6.1"/>
					
						<rect x="349.8" y="349.9" transform="matrix(0.5373 -0.8434 0.8434 0.5373 -100.22 523.2156)" class="st2" width="154" height="6.1"/>
					
						<rect x="365.2" y="354.8" transform="matrix(0.5373 -0.8434 0.8434 0.5373 -97.1798 538.5022)" class="st2" width="154" height="6.1"/>
					
						<rect x="380.7" y="359.6" transform="matrix(0.5373 -0.8434 0.8434 0.5373 -94.1388 553.7871)" class="st2" width="154" height="6.1"/>
					
						<rect x="396.1" y="364.5" transform="matrix(0.5373 -0.8434 0.8434 0.5373 -91.0984 569.0736)" class="st2" width="154" height="6.1"/>
					
						<rect x="411.6" y="369.4" transform="matrix(0.5373 -0.8434 0.8434 0.5373 -88.057 584.3589)" class="st2" width="154" height="6.1"/>
				</g>
			</g>
		</g>
		<g>
			<g>
				<g>
					<path class="st2" d="M189.7,65.2h9.8c0.9,0,1.6,0.7,1.6,1.6v9.8c0,0.9,0.7,1.6,1.6,1.6h0.2c0.9,0,1.6-0.7,1.6-1.6v-9.8
						c0-0.9,0.7-1.6,1.6-1.6h9.8c0.9,0,1.6-0.7,1.6-1.6v-0.2c0-0.9-0.7-1.6-1.6-1.6h-9.8c-0.9,0-1.6-0.7-1.6-1.6v-9.8
						c0-0.9-0.7-1.6-1.6-1.6h-0.2c-0.9,0-1.6,0.7-1.6,1.6v9.8c0,0.9-0.7,1.6-1.6,1.6h-9.8c-0.9,0-1.6,0.7-1.6,1.6v0.2
						C188.2,64.5,188.9,65.2,189.7,65.2z"/>
				</g>
				<g>
					<path class="st2" d="M217.2,82.7h5.9c0.5,0,1,0.4,1,1v5.9c0,0.5,0.4,1,1,1h0.1c0.5,0,1-0.4,1-1v-5.9c0-0.5,0.4-1,1-1h5.9
						c0.5,0,1-0.4,1-1v-0.1c0-0.5-0.4-1-1-1h-5.9c-0.5,0-1-0.4-1-1v-5.9c0-0.5-0.4-1-1-1h-0.1c-0.5,0-1,0.4-1,1v5.9c0,0.5-0.4,1-1,1
						h-5.9c-0.5,0-1,0.4-1,1v0.1C216.3,82.3,216.7,82.7,217.2,82.7z"/>
				</g>
			</g>
		</g>
		<g>
			<path class="st4" d="M441.1,199.8c5.9,5.9,5.9,15.3,0,21.2c-5.9,5.9-15.3,5.9-21.2,0s-5.9-15.3,0-21.2
				C425.7,193.9,435.2,193.9,441.1,199.8z"/>
			<g>
				<path class="st2" d="M443.3,217.3c5.6,5.5,8.8,13.3,8.9,21.2c0,3.9-0.7,7.9-2.1,11.6c-1.5,3.7-3.7,7.1-6.4,10
					c-5.5,5.8-13.4,9.2-21.5,9.3c-4,0-8.1-0.7-11.8-2.3c-3.7-1.5-7.2-3.8-10.1-6.7c-2.9-2.9-5.1-6.3-6.7-10.1
					c-1.5-3.7-2.3-7.8-2.3-11.8c0.1-8.1,3.5-16,9.3-21.5c2.9-2.8,6.3-5,9.9-6.4c3.7-1.5,7.6-2.2,11.6-2.1
					C430,208.5,437.8,211.8,443.3,217.3z M443.3,217.3c-2.8-2.8-6.1-5-9.7-6.5c-3.6-1.5-7.5-2.2-11.4-2.2c-7.8,0.1-15.5,3.4-20.8,9
					c-2.7,2.8-4.8,6.1-6.2,9.6c-1.4,3.6-2.1,7.4-2,11.2c0.1,7.6,3.2,15.1,8.6,20.5c5.3,5.4,12.8,8.6,20.5,8.6
					c3.8,0,7.6-0.6,11.2-2.1c3.6-1.4,6.8-3.5,9.6-6.2c5.6-5.4,8.9-13,9-20.8c0-3.9-0.7-7.8-2.2-11.4
					C448.2,223.4,446,220.1,443.3,217.3z"/>
			</g>
		</g>
		<g>
			<g>
				<defs>
					<path id="SVGID_00000075843287723673874390000000039444666721515948_" d="M112.8,22.8c31.2,2.2,54.7,29.2,52.5,60.4
						c-2.2,31.2-29.2,54.7-60.4,52.5c-31.2-2.2-54.7-29.2-52.5-60.4C54.6,44.1,81.6,20.6,112.8,22.8z"/>
				</defs>
				<clipPath id="SVGID_00000136400441074065407010000005452938995997435051_">
					<use xlink:href="#SVGID_00000075843287723673874390000000039444666721515948_"  style="overflow:visible;"/>
				</clipPath>
				<g style="clip-path:url(#SVGID_00000136400441074065407010000005452938995997435051_);">
					
						<rect x="-24.7" y="71.1" transform="matrix(0.3258 -0.9454 0.9454 0.3258 -34.8686 99.3713)" class="st2" width="154" height="6.1"/>
					
						<rect x="-8.6" y="72.2" transform="matrix(0.3258 -0.9454 0.9454 0.3258 -25.0441 115.4162)" class="st2" width="154" height="6.1"/>
					
						<rect x="7.6" y="73.3" transform="matrix(0.3258 -0.9454 0.9454 0.3258 -15.2212 131.4603)" class="st2" width="154" height="6.1"/>
					
						<rect x="23.7" y="74.5" transform="matrix(0.3258 -0.9454 0.9454 0.3258 -5.3979 147.5057)" class="st2" width="154" height="6.1"/>
					
						<rect x="39.9" y="75.6" transform="matrix(0.3258 -0.9454 0.9454 0.3258 4.4263 163.5494)" class="st2" width="154" height="6.1"/>
					
						<rect x="56.1" y="76.8" transform="matrix(0.3258 -0.9454 0.9454 0.3258 14.2496 179.5947)" class="st2" width="154" height="6.1"/>
					
						<rect x="72.2" y="77.9" transform="matrix(0.3258 -0.9454 0.9454 0.3258 24.073 195.6399)" class="st2" width="154" height="6.1"/>
					
						<rect x="88.4" y="79" transform="matrix(0.3258 -0.9454 0.9454 0.3258 33.897 211.6836)" class="st2" width="154" height="6.1"/>
				</g>
			</g>
		</g>
		<g>
			<circle class="st6" cx="78.9" cy="127.7" r="36.3"/>
			<ellipse class="st2" cx="78.9" cy="127.7" rx="33.3" ry="33.3"/>
			<g>
				<path class="st7" d="M82.4,106.3c0.2,4,0.3,7.9,0.4,11.9c0.1,4,0.1,7.9,0.1,11.9l0,0.5l-0.5,0c-3,0-6-0.1-8.9-0.1
					c-1.5,0-3-0.1-4.5-0.1c-1.5-0.1-3-0.1-4.5-0.2c1.5-0.1,3-0.1,4.5-0.2c1.5-0.1,3-0.1,4.5-0.1c3-0.1,6-0.1,8.9-0.1l-0.5,0.5
					c0-4,0-7.9,0.1-11.9C82.1,114.3,82.1,110.3,82.4,106.3z"/>
			</g>
		</g>
		<g>
			<path class="st7" d="M443.2,365c5.6,9.2,2.6,21.2-6.6,26.8s-21.2,2.6-26.7-6.6c-5.6-9.2-2.6-21.2,6.6-26.8
				C425.6,352.8,437.6,355.7,443.2,365z"/>
		</g>
		<g>
			<path class="st7" d="M451.1,345.9c1.5,2.4,0.7,5.6-1.7,7c-2.4,1.5-5.5,0.7-7-1.7c-1.5-2.4-0.7-5.6,1.7-7
				C446.5,342.7,449.7,343.5,451.1,345.9z"/>
		</g>
		
			<ellipse transform="matrix(0.2583 -0.9661 0.9661 0.2583 -136.1725 170.1077)" class="st7" cx="42.7" cy="173.7" rx="12.7" ry="12.7"/>
		<path class="st4" d="M437.7,178.4c2.1,2.1,2.1,5.6,0,7.8c-2.1,2.1-5.6,2.1-7.8,0s-2.1-5.6,0-7.8
			C432.1,176.3,435.6,176.3,437.7,178.4z"/>
		<path class="st7" d="M389.4,221.4l-2.9,4.8c-0.1,0.1-0.1,0.2-0.2,0.2l-5.3,3.3c-0.4,0.3-0.4,0.9,0,1.2l5.6,3.4
			c0.1,0.1,0.2,0.1,0.2,0.2l2.7,4.6c0.3,0.4,0.9,0.5,1.2,0l3-4.6c0-0.1,0.1-0.1,0.2-0.2l5-3.6c0.4-0.3,0.4-0.9-0.1-1.2l-5.6-3.1
			c-0.1-0.1-0.2-0.2-0.3-0.3l-2.4-4.7C390.4,221,389.7,221,389.4,221.4z"/>
		<path class="st2" d="M363.6,232.9l-4.2,6.9c-0.1,0.1-0.2,0.2-0.3,0.3l-7.6,4.8c-0.6,0.4-0.6,1.3,0,1.7l8,4.8
			c0.1,0.1,0.3,0.2,0.4,0.4l3.9,6.6c0.4,0.6,1.3,0.7,1.7,0l4.3-6.7c0.1-0.1,0.2-0.2,0.3-0.3l7.2-5.2c0.6-0.4,0.5-1.3-0.1-1.7l-8-4.4
			c-0.2-0.1-0.3-0.2-0.4-0.4l-3.4-6.8C365,232.3,364,232.3,363.6,232.9z"/>
		<path class="st7" d="M75.4,174.6c2.5,1.6,3.2,5,1.6,7.5c-1.6,2.5-5,3.2-7.5,1.6c-2.5-1.6-3.2-5-1.6-7.5
			C69.5,173.7,72.9,173,75.4,174.6z"/>
		<path class="st7" d="M107.7,70.3l-2.9,4.8c-0.1,0.1-0.1,0.2-0.2,0.2l-5.3,3.3c-0.4,0.3-0.4,0.9,0,1.2l5.6,3.4
			c0.1,0.1,0.2,0.1,0.2,0.2l2.7,4.6c0.3,0.4,0.9,0.5,1.2,0l3-4.6c0-0.1,0.1-0.1,0.2-0.2l5-3.6c0.4-0.3,0.4-0.9-0.1-1.2l-5.6-3.1
			c-0.1-0.1-0.2-0.2-0.3-0.3l-2.4-4.7C108.6,69.8,108,69.8,107.7,70.3z"/>
	</g>
	<g>
		<g>
			<g>
				<g>
					<path class="st7" d="M138.9,383.8c0.7-2.7,1.3-5.3,1.9-8c0.6-2.7,1.1-5.3,1.5-8c0.5-2.7,0.8-5.4,1.1-8.1
						c0.2-1.4,0.3-2.7,0.4-4.1c0.1-1.4,0.2-2.7,0.3-4.1c0.1,1.4,0.1,2.7,0.2,4.1c0,1.4-0.1,2.7-0.1,4.1c-0.1,2.7-0.5,5.5-0.9,8.2
						c-0.5,2.7-1,5.4-1.8,8.1C140.9,378.7,140,381.3,138.9,383.8z"/>
				</g>
				<g>
					<g>
						<path class="st6" d="M169.3,403.3C145,311.1,98.6,268.4,46.5,229.1c-1.6,35.2,5.5,75.6,20.9,103.4s46.2,79.8,82,101.1"/>
					</g>
					<g>
						<path class="st7" d="M154.4,425.7l-5.1-12.8l-5.4-12.7l-5.5-12.6c-1.9-4.2-3.8-8.3-5.8-12.5c-7.8-16.6-16.1-33-25.1-49
							c-8.9-16-18.4-31.7-28.5-47.1c-2.5-3.8-5.1-7.6-7.7-11.4c-2.6-3.8-5.3-7.5-7.9-11.3l-8.1-11.1l-8.3-11l8.5,10.8l8.3,11
							c2.7,3.7,5.4,7.4,8,11.2c2.6,3.8,5.2,7.6,7.8,11.4c10.2,15.3,19.7,31,28.7,47c8.9,16.1,17.2,32.5,24.9,49.1
							c1.9,4.2,3.8,8.4,5.6,12.6l5.4,12.7l5.1,12.8L154.4,425.7z"/>
					</g>
					<g>
						<path class="st7" d="M127.7,362.1c0.2-2.4,0.6-4.7,0.9-7c0.3-2.3,0.8-4.7,1.2-7c0.4-2.3,0.9-4.6,1.4-6.9l0.8-3.5
							c0.3-1.1,0.6-2.3,0.9-3.4c-0.1,1.2-0.3,2.4-0.4,3.5l-0.5,3.5c-0.3,2.3-0.8,4.7-1.2,7c-0.4,2.3-0.9,4.6-1.4,6.9
							C128.9,357.5,128.3,359.8,127.7,362.1z"/>
					</g>
					<g>
						<path class="st7" d="M108.7,325.2c0.4-2.6,0.9-5.1,1.2-7.7c0.3-2.6,0.7-5.1,0.9-7.7c0.2-2.6,0.4-5.2,0.5-7.8
							c0.1-1.3,0.1-2.6,0.1-3.9c0-1.3,0-2.6,0.1-3.9c0.2,1.3,0.3,2.6,0.4,3.9c0.1,1.3,0.1,2.6,0.2,3.9c0.1,2.6-0.1,5.2-0.3,7.8
							c-0.3,2.6-0.6,5.2-1.1,7.8C110.2,320.2,109.6,322.7,108.7,325.2z"/>
					</g>
					<g>
						<path class="st7" d="M90.3,295.6c0.3-4,0.6-8,0.7-12c0.1-4,0-8-0.2-12c0.9,3.9,1.2,8,1.2,12C91.8,287.7,91.3,291.7,90.3,295.6
							z"/>
					</g>
					<g>
						<path class="st7" d="M72.2,268.3c0.1-2.4,0.2-4.7,0.2-7c0-2.3-0.1-4.6-0.3-7c0.9,2.2,1.2,4.6,1.3,7
							C73.4,263.6,73.1,266,72.2,268.3z"/>
					</g>
					<g>
						<path class="st7" d="M72,268.7c-2.1,0.2-4.1,0-6.2-0.2c-2-0.2-4.1-0.6-6.1-1.2c2.1-0.2,4.1,0,6.2,0.2
							C68,267.8,70,268.1,72,268.7z"/>
					</g>
					<g>
						<path class="st7" d="M89.9,296.2c-2.3,0.4-4.8,0.5-7.2,0.3c-2.4-0.2-4.8-0.7-7-1.5c-2.3-0.8-4.5-1.9-6.4-3.2l-1.5-1l-1.4-1.1
							l-1.3-1.2c-0.4-0.4-0.8-0.9-1.2-1.3c0.5,0.4,0.9,0.7,1.4,1.1l1.4,1l1.5,1l1.5,0.9c2,1.2,4.2,2.2,6.4,2.9
							c2.2,0.8,4.5,1.3,6.8,1.7C85.1,296.1,87.5,296.2,89.9,296.2z"/>
					</g>
					<g>
						<path class="st7" d="M108,325.5c-3.1,0.9-6.3,1.4-9.5,1.6c-3.2,0.2-6.5,0-9.7-0.6c-3.2-0.6-6.3-1.5-9.3-2.8l-2.2-1l-2.1-1.1
							l-2-1.3c-0.7-0.5-1.3-0.9-2-1.4c0.7,0.4,1.4,0.8,2.1,1.2l2.1,1.1l2.2,1l2.2,0.9c3,1.1,6.1,2,9.2,2.5c3.1,0.6,6.3,0.8,9.5,0.8
							C101.6,326.3,104.8,326,108,325.5z"/>
					</g>
					<g>
						<path class="st7" d="M127.3,362c-1.3,0.6-2.7,1.3-4.2,1.5c-0.7,0.1-1.5,0.1-2.2,0.1c-0.7,0-1.5-0.1-2.2-0.1
							c-3-0.2-5.9-0.7-8.8-1.4c-2.9-0.7-5.7-1.6-8.4-2.8c-1.4-0.6-2.7-1.2-4-1.9c-1.3-0.7-2.6-1.4-3.8-2.2c1.3,0.6,2.7,1.2,4,1.8
							c1.3,0.6,2.7,1.1,4.1,1.6c2.7,1,5.5,1.9,8.4,2.6c2.8,0.7,5.7,1.2,8.6,1.7c0.7,0.1,1.5,0.2,2.2,0.3c0.7,0.1,1.4,0.1,2.2,0.1
							C124.5,363,125.9,362.4,127.3,362z"/>
					</g>
				</g>
			</g>
			<g>
				<path class="st7" d="M241.1,470.6c22.7-1.3,46.1,2.5,68,10.9c-17.2-8.8-35.3-15.6-53.8-20.5c30.8-3.9,62.6-3.5,94.2,1
					c-25.4-6.8-51.4-11.3-77.3-13.4c33.1-7.6,66.7-13.3,100.8-17.3c-31.4-3.5-59.8-6.2-90.1-0.9c34.3-16.3,68.5-24.1,107.1-30.2
					c-39.6-3.5-83.4-0.5-126.2,14.1c-9.3,3.2-36,17.6-36,17.6l-12.7,19.4L241.1,470.6z"/>
			</g>
			<g>
				<g>
					<path class="st7" d="M243.4,405.1c-0.5-2.4-0.8-4.9-0.9-7.3c-0.1-2.5-0.1-4.9,0.1-7.4c0.2-2.5,0.5-4.9,1.1-7.3
						c0.3-1.2,0.6-2.4,0.9-3.6c0.4-1.2,0.7-2.4,1.2-3.5c-0.1,0.6-0.2,1.2-0.4,1.8l-0.3,1.8c-0.2,1.2-0.4,2.4-0.6,3.6
						c-0.3,2.4-0.6,4.8-0.8,7.3c-0.2,2.4-0.3,4.9-0.3,7.3C243.2,400.2,243.3,402.7,243.4,405.1z"/>
				</g>
				<g>
					<g>
						<path class="st6" d="M205.5,417.2c49.4-76.9,115.3-110,181.9-135.9c-10.8,30.9-29.6,68.6-53.3,90.6
							c-23.7,21.9-70.2,62.4-114.4,75.2"/>
					</g>
					<g>
						<path class="st7" d="M216.1,439.3l8.9-10.8l9-10.7l9.3-10.5l9.5-10.3c12.8-13.6,26.1-26.7,39.8-39.3
							c13.8-12.6,28-24.6,42.7-36.1l11.1-8.5l11.3-8.3l11.4-8l11.6-7.8l-11.4,8l-11.3,8.2l-11.2,8.4l-11,8.6
							c-14.6,11.6-28.8,23.7-42.5,36.3c-13.8,12.5-27.1,25.6-39.9,39.1l-9.6,10.2l-9.4,10.4l-9.2,10.5L216.1,439.3z"/>
					</g>
					<g>
						<path class="st7" d="M261.1,387.9c-0.1-2.1-0.1-4.2,0-6.3c0-2.1,0.1-4.2,0.2-6.3c0.1-2.1,0.2-4.2,0.4-6.3l0.3-3.2
							c0.1-1,0.2-2.1,0.4-3.1c0.1,1.1,0.1,2.1,0.1,3.2l0,3.2c0,2.1-0.1,4.2-0.2,6.3c-0.1,2.1-0.2,4.2-0.4,6.3
							C261.6,383.7,261.4,385.8,261.1,387.9z"/>
					</g>
					<g>
						<path class="st7" d="M290.9,358.6c-0.3-2.3-0.3-4.7-0.2-7.1c0.1-2.4,0.3-4.7,0.7-7c0.4-2.3,0.9-4.6,1.6-6.9
							c0.4-1.1,0.7-2.2,1.1-3.4c0.4-1.1,0.9-2.2,1.4-3.3c-0.3,1.1-0.6,2.3-0.9,3.4c-0.3,1.1-0.6,2.3-0.9,3.4c-0.5,2.3-1,4.6-1.4,6.9
							c-0.4,2.3-0.7,4.6-0.9,6.9C291.2,354,291,356.3,290.9,358.6z"/>
					</g>
					<g>
						<path class="st7" d="M318.4,335.8c-0.1-3.7,0.4-7.4,1.3-11c0.9-3.6,2.3-7.1,4.2-10.2c-1.2,3.5-2.3,6.9-3.2,10.5
							C319.7,328.6,319,332.1,318.4,335.8z"/>
					</g>
					<g>
						<path class="st7" d="M344.8,314.7c-0.3-2.2,0-4.4,0.6-6.5c0.6-2.1,1.6-4.1,3-5.8c-0.7,2.1-1.5,4-2.1,6.1
							C345.7,310.5,345.3,312.6,344.8,314.7z"/>
					</g>
					<g>
						<path class="st7" d="M345,315.2c2.3-0.3,4.6-0.2,6.9-0.1c2.3,0.1,4.6,0.4,6.8,0.9c-2.3,0.3-4.6,0.2-6.9,0.1
							C349.5,315.9,347.2,315.7,345,315.2z"/>
					</g>
					<g>
						<path class="st7" d="M318.7,336.4c2.6,0.4,5.2,0.7,7.8,0.7c2.6,0,5.2-0.1,7.8-0.4c2.6-0.3,5.1-0.8,7.6-1.5l1.9-0.5l1.9-0.6
							l1.8-0.7c0.6-0.3,1.2-0.5,1.8-0.7c-0.6,0.3-1.1,0.7-1.7,1l-1.8,0.9l-1.8,0.8l-1.9,0.7c-2.5,0.9-5.1,1.4-7.7,1.7
							c-2.6,0.3-5.3,0.4-7.9,0.1C323.8,337.6,321.2,337.2,318.7,336.4z"/>
					</g>
					<g>
						<path class="st7" d="M291.7,359.1c3.4,1,6.9,1.8,10.4,2.3c3.5,0.5,7,0.8,10.5,0.8c3.5,0,7-0.2,10.5-0.7l2.6-0.4l2.6-0.5
							l2.6-0.6c0.9-0.2,1.7-0.5,2.6-0.7c-0.8,0.3-1.7,0.6-2.5,0.9l-2.5,0.8l-2.6,0.7l-2.6,0.6c-3.5,0.7-7.1,1-10.7,1
							c-3.6,0-7.2-0.4-10.7-1C298.4,361.4,294.9,360.4,291.7,359.1z"/>
					</g>
					<g>
						<path class="st7" d="M261.5,387.9c1.5,0.7,3,1.4,4.6,1.6c0.8,0.1,1.6,0.2,2.4,0.2c0.8,0,1.6,0.1,2.4,0.1
							c3.2,0.1,6.5,0.1,9.7-0.1c3.2-0.2,6.5-0.5,9.7-0.9c1.6-0.2,3.2-0.4,4.8-0.7c1.6-0.2,3.2-0.6,4.8-0.9c-1.5,0.5-3.1,1-4.7,1.4
							c-1.6,0.4-3.2,0.7-4.8,1c-3.2,0.6-6.5,0.9-9.7,1.1c-3.3,0.2-6.5,0.1-9.8-0.2c-0.8-0.1-1.6-0.1-2.4-0.2
							c-0.8-0.1-1.6-0.2-2.4-0.4C264.3,389.5,262.9,388.7,261.5,387.9z"/>
					</g>
					<g>
						<path class="st7" d="M239.8,412.1c2.6,0.2,5.2,0.4,7.7,0.5c2.6,0.1,5.2,0.1,7.7-0.1c2.6-0.1,5.1-0.3,7.7-0.6
							c1.3-0.1,2.6-0.3,3.8-0.5l1.9-0.3c0.6-0.1,1.3-0.2,1.9-0.3c-1.2,0.4-2.5,0.8-3.7,1.1c-1.3,0.3-2.5,0.6-3.8,0.8
							c-2.6,0.5-5.2,0.7-7.8,0.9c-2.6,0.1-5.2,0.1-7.8-0.2C244.9,413,242.4,412.7,239.8,412.1z"/>
					</g>
				</g>
			</g>
			<g>
				<path class="st7" d="M140.3,441.6c-7.5,0.8-15.1,1.6-22.6,2.3c-4.9,0.5-10.1,1-14.5-1.1s-7.7-7.6-5.5-12
					c2.7-5.4,11.4-5.8,13.5-11.5c-5.6-5.4-14.2-6-22-5.8c-7.8,0.2-16.1,0.6-22.8-3.4c-6.7-4-9.8-14.7-3.7-19.6
					c2.5-2,5.7-2.5,8.6-3.9c2.8-1.4,5.4-4.4,4.4-7.4c-0.7-2-2.6-3.1-4.5-4c-7.7-3.7-16.2-5.5-24.2-8.5s-16-7.4-20.5-14.7
					s-4.5-17.9,2-23.5c7.4-6.4,19.3-3.5,26.8,2.7c7.5,6.2,12.4,15,19.3,22c2.3,2.4,5.8,4.7,8.8,3.3c3.9-1.9,3-7.6,2-11.8
					s0-10.4,4.4-10.2c1.4,0.1,2.7,0.9,3.7,1.9c11.2,10.2,4.8,29.1,10.4,43.1c1.2,3.1,4,6.4,7.3,5.6c6.4-1.5,2.8-14.4,9.2-16.2
					c2.8-0.8,5.6,1.6,6.9,4.1c4.6,8.9-1.5,19.7-0.3,29.7c1.6,13.2,14.9,21.3,26.8,27.1"/>
			</g>
			<g>
				<g>
					<g>
						<path class="st7" d="M228.5,380.3c2.1-8.9,4.2-17.8,7-26.5c2.7-8.6,6.1-17,10.8-24.7c2.3-3.8,5-7.4,8-10.8
							c3.2-3.6,6.9-6.8,10.6-9.9c3.7-3.1,7.4-6.1,11-9.2c3.5-3.1,6.8-6.4,9.8-9.9c6-7.1,11-15.1,14.8-23.6c0.5-1,0.9-2,1.3-3.1
							c0.2-0.6-0.7-0.9-1-0.3c-3.5,8.7-8.3,16.9-14.1,24.2c-2.9,3.6-6.1,7-9.5,10.2c-3.5,3.2-7.3,6.3-11,9.3
							c-3.7,3.1-7.4,6.2-10.8,9.7c-3.1,3.2-5.9,6.8-8.4,10.5c-4.9,7.4-8.4,15.6-11.3,24c-3,8.7-5.2,17.6-7.3,26.5
							c-0.3,1.1-0.5,2.2-0.8,3.2C227.4,380.7,228.4,381,228.5,380.3L228.5,380.3z"/>
					</g>
				</g>
				<g>
					<path class="st7" d="M295,274.5c0.8-9.8,2.2-20.7,9.2-27.1c1.4-1.2,3-2.3,4.8-2.4c1.8-0.1,3.6,1,4.1,2.8c0.3,1.2,0,2.5-0.4,3.7
						c-3,9.7-10.8,16.6-18.1,22.9"/>
				</g>
				<g>
					<path class="st7" d="M286.5,286.2c4.2-3,9-5,13.9-5.8c2.6-0.5,5.5-0.6,7.7,0.9c2.2,1.4,3.5,4.9,2.1,7.4
						c-1.4,2.4-4.3,2.8-6.9,2.8c-6.1,0-12.2-0.8-18.1-2.5"/>
				</g>
				<g>
					<path class="st7" d="M276.7,297.2c4.1-8.3,5.1-13.9,4.4-23c-0.2-2.5-0.7-5.1-2.3-6.9c-1.6-1.8-4.6-2.1-6.1-0.1
						c-1,1.4-1,3.3-0.9,5c0.5,8.5,1.9,19,3.4,27.3"/>
				</g>
				<g>
					<path class="st7" d="M262.9,309.2c6.6-4.7,15.2-5.8,22.4-2.9c1.9,0.8,3.8,1.9,4.8,3.9c1,1.9,0.6,4.8-1.2,6
						c-1.2,0.8-2.6,0.6-4,0.4c-7.6-1.2-14.9-3.6-21.8-7"/>
				</g>
				<g>
					<path class="st7" d="M257.8,313.2c3-8.4,3.7-17.7,1.8-26.3c-0.2-0.9-0.5-1.8-1.2-2.2c-1.5-0.9-3.1,1.3-3.6,3.2
						c-2.5,8.4-1.2,20,1.4,28.2"/>
				</g>
				<g>
					<path class="st7" d="M249.7,324.4c4.8-2.5,10.7-1.9,14.8,1.5c1.3,1.1,2.6,3.1,1.7,4.7c-0.6,1.2-2.1,1.6-3.4,1.7
						c-4.9,0.4-11.1-3-15.3-5.5"/>
				</g>
			</g>
		</g>
		<g>
			<g>
				<g>
					<g>
						<polygon class="st8" points="301.9,115.2 303.2,112.6 303.6,112.9 						"/>
						<path class="st8" d="M306.3,107.6c1.1-1.6,2.4-3.2,3.7-4.7l1.3,1.3c-1.4,1.3-2.7,2.7-4,4.2L306.3,107.6z"/>
						<path class="st8" d="M314.2,98.7c1.5-1.3,3.1-2.6,4.7-3.7l1.5,2.2c-1.6,1-3.2,2.1-4.7,3.3L314.2,98.7z"/>
						<polygon class="st8" points="324.1,91.8 329.6,89.2 330.7,92 325.4,94.3 						"/>
						<polygon class="st8" points="335.2,87.3 341.1,85.9 341.7,88.7 336.1,90.1 						"/>
						<path class="st8" d="M347,85l3-0.2c1-0.1,2-0.1,3-0.1l0.1,2.3c-1,0.1-1.9,0.1-2.9,0.3l-2.9,0.3L347,85z"/>
						<path class="st8" d="M359,85c2,0.2,3.9,0.5,5.9,0.7l-0.1,1.3c-2,0-3.9-0.1-5.8-0.1L359,85z"/>
						<polygon class="st8" points="370.7,87 373.4,87.7 370.6,87.5 						"/>
					</g>
				</g>
				<g>
					<path class="st9" d="M380.7,102.6c-29.4-11.6-62.8,2.7-74.4,32c-7.3,18.4-4.3,38.3,6.1,53.4c0.1,0.6,0.4,1.1,1,1.4
						c0,0,0,0,0,0.1l-17.7,25.7c-1,1.4,0.7,3.2,2.3,2.5l30.9-13.8c3,1.9,6.1,3.5,9.5,4.8c29.4,11.6,62.8-2.7,74.4-32
						C424.5,147.5,410.1,114.3,380.7,102.6z"/>
					<g>
						<path class="st9" d="M375.1,188.7h-30.2c-8.5,0-15.3-6.9-15.3-15.3v-38.1c0-8.5,6.9-15.3,15.3-15.3h30.2
							c8.5,0,15.3,6.9,15.3,15.3v38.1C390.4,181.8,383.5,188.7,375.1,188.7z"/>
						<g class="st10">
							<path class="st8" d="M337.5,142.3h3.4v12h-2.3v-9.9h-2.5L337.5,142.3z"/>
							<path class="st8" d="M349,142l1.9,1l-2.1,4.1c1,0,1.9,0.4,2.6,1.1s1.1,1.6,1.1,2.7c0,1-0.4,1.9-1.1,2.7s-1.6,1.1-2.7,1.1
								c-1.1,0-2-0.4-2.7-1.1s-1.1-1.6-1.1-2.6c0-0.4,0.1-0.7,0.2-1.1c0.1-0.4,0.4-1,0.8-1.7L349,142z M348.7,149.3
								c-0.4,0-0.8,0.2-1.1,0.5c-0.3,0.3-0.4,0.7-0.4,1.2c0,0.5,0.2,0.9,0.5,1.2c0.3,0.3,0.7,0.5,1.1,0.5c0.4,0,0.8-0.2,1.1-0.5
								c0.3-0.3,0.5-0.7,0.5-1.2c0-0.5-0.1-0.8-0.4-1.2C349.5,149.4,349.1,149.3,348.7,149.3z"/>
						</g>
						<path class="st8" d="M377.6,120h-35.3c-7.1,0-12.8,6.2-12.8,13.8v2.5h60.9v-2.5C390.4,126.2,384.6,120,377.6,120z"/>
						<g class="st11">
							<path class="st2" d="M365.2,128.3c0,1.3-1.1,2.4-2.4,2.4s-2.4-1.1-2.4-2.4s1.1-2.4,2.4-2.4S365.2,126.9,365.2,128.3z"/>
							<path class="st2" d="M373.3,128.3c0,1.3-1.1,2.4-2.4,2.4s-2.4-1.1-2.4-2.4s1.1-2.4,2.4-2.4S373.3,126.9,373.3,128.3z"/>
							<circle class="st2" cx="379.1" cy="128.3" r="2.4"/>
						</g>
						<g>
							<path class="st8" d="M400,139.1c-3.1,3.7-6.3,7.3-9.5,10.9c-3.2,3.6-6.5,7.1-9.9,10.5c-1.7,1.7-3.3,3.5-5,5.2
								c-1.7,1.7-3.4,3.4-5.1,5.1l-5.1,5.1l-5.2,5l-1,1l-0.9-1c-1.3-1.6-2.6-3.2-4-4.8c-1.3-1.6-2.6-3.2-3.9-4.8
								c-1.3-1.6-2.6-3.2-3.8-4.9c-1.3-1.6-2.5-3.3-3.7-5c1.5,1.4,3,2.9,4.5,4.3c1.5,1.5,2.9,2.9,4.4,4.4c1.4,1.5,2.9,3,4.3,4.5
								c1.4,1.5,2.8,3,4.2,4.5l-1.9-0.1l5-5.2l5.1-5.1c1.7-1.7,3.4-3.4,5.1-5.1c1.7-1.7,3.4-3.4,5.2-5c3.5-3.3,7-6.6,10.5-9.9
								C392.7,145.4,396.3,142.2,400,139.1z"/>
						</g>
					</g>
				</g>
			</g>
			<g>
				<g>
					<defs>
						<circle id="SVGID_00000102543253529479514550000006201839011895417491_" cx="250" cy="250" r="221.6"/>
					</defs>
					<clipPath id="SVGID_00000089574656170707180610000002646668768958417087_">
						<use xlink:href="#SVGID_00000102543253529479514550000006201839011895417491_"  style="overflow:visible;"/>
					</clipPath>
					<g style="clip-path:url(#SVGID_00000089574656170707180610000002646668768958417087_);">
						<g>
							<path class="st13" d="M229.8,134.4c-7.2-15.7-28.1-23.7-45-19.7c-16.8,4-30,18.2-36.2,34.4c-5.4,14-6.2,29.2-10.6,43.5
								c-3.7,12.2-10.1,23.5-18.4,33.1c-7.6,8.8-17,16.2-22.9,26.2c-7.6,13-8.2,29.9-1.5,43.5s20.5,23.3,35.5,25.2
								c15.7,2,32-4.2,47.3-0.2c7.8,2,14.9,6.6,22.9,7.6c13.8,1.8,27.3-8,33-20.7s5-27.4,1.5-40.9c-3.8-14.6-10.7-28.5-11.6-43.6
								c-1-16.7,2.8-27.7,4-44.4C228.7,163.8,239.9,156.5,229.8,134.4z"/>
						</g>
						<g>
							<g>
								<path class="st13" d="M265.2,716.5c-0.5-5.7-1-11.4-1.6-17.1c-0.2-2.2-0.5-4.6-2.1-6.3c-2.8-3-7.9-2.4-12.2-1.6
									c-1.5,0.3-3.2,0.7-4.1,1.8c-1.2,1.4-0.8,3.4-0.3,5.1c2.1,7.6,4.2,15.3,6.3,22.9"/>
								<g>
									<g>
										<path class="st13" d="M307.4,737.2c-10.5,0.4-19,0.6-29.5,1c-3.2,0.1-28.6-0.3-32.2-0.3c-1.2,0-2.5,0-3.4-0.8
											c-1.1-0.9-1.1-2.5-1.1-4c0.3-5.6,1.3-11.2,3.1-16.5c0.4-1.2,1-2.6,2.2-2.9c1.1-0.3,2.3,0.3,3.3,0.9
											c4.1,2.3,4.4,2.3,9.3,1.3c1.2-0.3,5.9-1.8,7-2.2c1.3-0.5,2.7-0.3,4,0c11.6,2.2,22.8,5.9,33.4,11c2.4,1.2,4.9,2.5,6.3,4.8
											s1.3,5.7-0.9,7.2"/>
									</g>
								</g>
							</g>
							<g>
								<path class="st13" d="M35.3,679.8c4.6-3.4,9.2-6.7,13.9-10.1c1.8-1.3,3.8-2.7,6.2-2.5c4.2,0.3,7.6,5.1,10,9.2
									c0.9,1.5,1.8,3.1,1.7,4.7c-0.2,1.9-2,2.9-3.6,3.7c-7.2,3.3-14.5,6.7-21.7,10"/>
								<g>
									<g>
										<path class="st13" d="M46.9,740.2c-5.2-9.1-9.5-16.5-14.7-25.5c-1.6-2.8-13.1-25.4-14.9-28.6c-0.6-1.1-1.2-2.2-0.9-3.4
											c0.3-1.4,1.7-2.2,3-2.8c5.1-2.4,10.5-4.1,16-5c1.3-0.2,2.7-0.3,3.6,0.6c0.8,0.8,0.8,2.2,0.8,3.3c-0.1,4.7,0,5,3.3,8.8
											c0.8,0.9,4.3,4.4,5.3,5.2c1,0.9,1.5,2.2,1.9,3.5c3.5,11.2,5.6,22.9,6,34.7c0.1,2.7,0.1,5.5-1.2,7.8s-4.4,3.8-6.8,2.5"/>
									</g>
								</g>
							</g>
							<g>
								<g>
									<path class="st13" d="M176.2,444.6c19.5,80.7,37.2,165.4,63.5,243.8c2.1,6.2,5.1,17,8.1,17.3c4.2,0.5,7.7-0.1,11.7-0.8
										c3.2-0.7,5.5-3.6,5.1-6.9c-13.6-119.3-12.8-239.6-41.7-355.7c-1-4.1-54,2.8-54,2.8"/>
								</g>
								<g>
									<path class="st13" d="M54.9,685.6c0.7,2.1,3.1,3,5.1,2c28.2-14.9,52.8-39.8,73.2-70.6c30-45.2,48.3-81,64.4-134.4
										c12.4-41,22.7-84.1,18.2-126.9c-19.5,1.6-39,4.2-58.3,7.8c-3.9,0.7-4.9,1-7.6,4.2c-2.7,3-4,10.6-4.7,14.7
										c-7.4,46.2-8.1,91.2-17.1,137C117.1,574.9,92.4,633,50.9,667.8c-1.2,1-1.6,2.6-1.1,4L54.9,685.6z"/>
								</g>
							</g>
						</g>
						<g>
							<path class="st8" d="M135.2,405.5l2.2,7.6c0.9,3.8,5.1,8.9,9.8,8.9c28.8,0,57.6-0.4,86.4-1c2.3-0.1,4.8-0.2,6.5-1.5
								c1.4-1.1,1.8-2.8,2.1-4.4c0.9-4.5,1.9-8.9,2.8-13.4"/>
						</g>
						<g>
							<path class="st14" d="M297.5,375.4c4.2,4.4,20.3,23.6,23,29c2.9,5.8,5,12.2,9.5,17c0.9,0.9,2.9,0,3-1.3
								c0.3-2.5,0.2-4.9-0.3-7.1c-0.3-1.3,1.7-2.5,2.9-1.8c0.9,0.6,1.6,1.4,2.2,2.2c3.6,4.9,7.1,8.3,10.7,13.2
								c1.5,2.1,3.8,5.2,5.8,6.9c1,0.8,1.6-0.3,1.3-1.5c-0.2-1-1.9-4.7-1.6-4.3c0.8,0.9,2.7,0.1,2.3-1.7
								c-1.9-7.7-6.9-17.1-10.4-21.6c-8.8-11.5-28.3-24.8-37-37.1"/>
						</g>
						<g>
							<path class="st8" d="M210.9,281.7c20.8,35.2,50.1,68.8,85,97.2c3.8,3.1,6.6,5.6,10.3,4.5c5.3-1.6,13.6-6.5,9.8-11.7
								c-18-24.3-41.7-51.8-51.2-77.5c-4.3-11.6-7.7-23.2-13.4-34.8c-5.8-11.5-14.2-24.4-26.2-31.5"/>
						</g>
						<g>
							<path class="st7" d="M145.6,415.4c-6.2,0.2-11.1-5.9-12.2-12c-1-6.1,5.8-19.5,4.7-26c-1.5-9.1-11.5-89.8,5.9-134.1
								c4-10.1,10.7-20.3,21.1-23.2c5.5-1.5,11.4-0.8,17.1-0.7c11.9,0.3,24.6-1.7,35.3,3.4c18.4,8.8,22,32.9,23.2,53.2
								c1,17,2,33.9,3,50.9c1.3,21.1,8.8,40.4,2.7,57.5c-1.8,5,5.2,19.3,1.8,23.4c-3.8,4.6-14.1,3.1-20,3.4
								c-24.6,1.1-49.1,2.3-73.7,3.4"/>
						</g>
						<path class="st13" d="M249.5,266.3l-3.6-3.4c-0.2-0.2-0.2-0.5,0-0.7l36-37.4c0.2-0.2,0.5-0.2,0.7,0l3.6,3.4
							c0.2,0.2,0.2,0.5,0,0.7l-36,37.4C250,266.5,249.7,266.5,249.5,266.3z"/>
						<g>
							<path class="st8" d="M190.3,358.4c-5.4,4.6-19.5,12.2-25.3,16.3c-4.3,3.1-11.9,0.1-18.2-6.7c-4.3-4.6-7.8-14-9.7-20.1
								c-3.6-11.5-5-27.4-5.6-41.4c-0.8-18.5,1.2-35.2,2.9-48.8c1.7-13.5,11.3-31.8,21.1-35.6c14.1-5.5,20.3,0.3,22.4,21.2
								c1.5,15-1.8,27.7-4,53c-1,11.5-2.1,32-2.1,32L190.3,358.4z"/>
						</g>
						<g>
							<path class="st14" d="M214.3,295.4c4.3-4.3,20.7-23.2,23.5-28.5c3.1-5.7,5.4-12,9.9-16.7c0.9-0.9,2.8,0,2.9,1.3
								c0.2,2.4,0,4.8-0.6,7.1c-0.3,1.3,4.4,2.6,5.6,1.9c0.9-0.5,15.5-15.9,15.8-16.2c0.8-0.9,2.7-0.1,2.1,1.7
								c-2.2,7.7-7.4,16.8-11,21.3c-9,11.3-28.5,24.3-37.5,36.4"/>
						</g>
						<g>
							<path class="st8" d="M164.4,374.4c6.9-1.3,21.8-11,28.1-18.6c10-12,41.9-51.1,42.7-57.6c0.3-2.7-8.6-10.6-12.2-14.1
								c-2.1-2.1-19.1,18-28.1,25.9c-2.8,2.5-19.2,15.4-27,20.9"/>
						</g>
						<g>
							<g>
								<path class="st2" d="M159.4,331.7c8.1-1.7,15.3-5.9,21.8-10.7c6.6-4.9,12.7-10.3,18.6-16c5.9-5.6,11.6-11.5,17.3-17.4
									l2.1-2.2l0.5-0.6c0.2-0.2,0.4-0.4,0.6-0.5c0.5-0.3,1.1-0.5,1.6-0.5c0.6,0,1.1,0.1,1.6,0.4c0.5,0.3,0.8,0.7,1.2,1.1l2.2,2.2
									l8.6,8.8l-8.9-8.5l-2.2-2.1c-0.4-0.3-0.7-0.8-1.1-1c-0.4-0.2-0.8-0.3-1.3-0.3c-0.5,0-0.9,0.2-1.3,0.4c-0.4,0.2-0.7,0.6-1,1
									l-2.1,2.3c-5.6,6-11.3,11.9-17.2,17.6c-6,5.6-12.1,11.1-18.8,15.9c-3.4,2.3-6.9,4.5-10.6,6.3
									C167.4,329.7,163.5,331,159.4,331.7z"/>
							</g>
							<g>
								<path class="st2" d="M170.2,327.9c-2.1-0.9-4.1-1.7-6.2-2.4c-2.1-0.8-4.2-1.5-6.4-2c1.1-0.1,2.3,0,3.4,0.2
									c1.1,0.2,2.2,0.5,3.3,0.9c1.1,0.4,2.1,0.9,3.1,1.4C168.5,326.4,169.4,327.1,170.2,327.9z"/>
							</g>
						</g>
						<g>
							<g>
								<g>
									<path class="st14" d="M178.9,217.8c2-8.3,4.9-20.6,6.3-26.3c0.6-2.3,1.1-4.6,1.8-6.9c0.1-0.5,0.3-1.1,0.7-1.4
										c0.3-0.3,0.7-0.3,1-0.3c3.4-0.1,6.1,2.7,9,4.3c3.7,1.9,8,2,11.7,3.7c0.4,0.2,0.9,0.5,1.1,1.1c0.1,0.3,0,0.7-0.1,1.1
										c-1.1,6.8-2.2,25.3-2.9,34c-0.4,4.8-9,7.6-17.6,5.2C179.4,229.3,178.1,221.1,178.9,217.8z"/>
									<g>
										<path class="st15" d="M187.7,183.1c0.3-0.3,0.7-0.3,1-0.3c3.4-0.1,6.1,2.7,9,4.3c3.7,1.9,8,2,11.7,3.7
											c0.4,0.2,0.9,0.5,1.1,1.1c0.1,0.3,0,0.7-0.1,1.1c-0.6,3.8-1.3,7.6-1.9,11.4c-4,1.8-8.1,2.5-12,1.8
											c-5.4-1-10.1-5.2-12.1-11.4c0.3-1.1,0.5-2.2,0.8-3.3c0.6-2.3,1.1-4.6,1.8-6.9C187.1,184,187.3,183.5,187.7,183.1z"/>
									</g>
								</g>
								<g>
									<path class="st14" d="M179.2,177.4c-5-0.6-9.5-3.4-10.4-7.1s2.9-8,8-8.3"/>
								</g>
								<g>
									<path class="st14" d="M178.7,177.7c5.6,18.5,18.8,20.7,32.6,24.8c2.5,0.7,6.5,1,9.1,0.7c6.3-0.8,9.1-6.9,10.2-12.1
										c2-9,2.9-18.1,2.7-27.2c-0.1-6.3-0.9-12.7-4.1-18.4s-9.3-10.6-16.9-11.7c-9.4-1.3-18.7,3.4-24.9,9.4
										c-9.1,8.8-13.6,21.2-9.5,32.3"/>
								</g>
								<g>
									<path class="st14" d="M233.4,163.5c0.1,5.8,0.3,4.8,1,8.1c0.1,0.4,0.8,3.2,2.8,4.5c1.6,1,2,3.4,0.7,4.7
										c-0.7,0.7-1.5,1.1-2.5,1.3c-1.5,0.3-2.9-0.1-3.8-1.3"/>
								</g>
							</g>
							<g>
								<path class="st13" d="M164.9,163.8c13.9-1.6,26.7-6.8,38.3-13c5.4-2.9,10.7-6.1,14.4-10.4c2-2.3,3.4-5.5,1.6-8
									c-2.1-2.7-6.8-3-10.7-2.7c-2.8,0.2-5.6,0.6-8.4,1c-4.6,0.8-9.2,2-13.2,4.1c-4.5,2.4-8,5.8-11.4,9.2c-3.5,3.5-7,7.3-7.4,11.7
									"/>
							</g>
							<g>
								<g>
									<path class="st13" d="M213.1,153.8c-0.2,0.2,0.1,0.4,0.3,0.4s0.6-0.1,0.8-0.2c3.1-1.3,7-1.6,10.3-0.8
										c0.5,0.1,1,0.3,1.6,0.2c0.5,0,1.1-0.3,1.1-0.7c0-0.2-0.1-0.3-0.3-0.4c-0.6-0.5-1.5-0.9-2.4-1.1c-3-0.7-6.5-0.4-9.3,0.8
										c-1,0.5-2,1.1-2.4,1.9"/>
								</g>
								<g class="st16">
									<path class="st17" d="M198.4,177.3c-0.1,4.6,3.8,8.3,8.7,8.3c4.9,0,8.9-3.6,9-8.2c0.1-4.6-3.8-8.3-8.7-8.3
										C202.5,169,198.5,172.7,198.4,177.3z"/>
								</g>
								<path class="st13" d="M219.7,163c0.2,2.2,1.4,4,2.7,3.9s2.3-1.9,2.1-4.2s-1.4-4-2.7-3.9C220.5,158.9,219.6,160.8,219.7,163z
									"/>
							</g>
						</g>
						<g>
							<g>
								<path class="st18" d="M175.4,219.8c3.1,7.6,10,13.1,18.2,14c8.7,1,17.2-4.3,18.3-13.3c0.2-1.3-1.3-2.5-2.5-2.5
									c-1.5,0-2.3,1.2-2.5,2.5c-0.7,6.3-7.9,9.2-13.5,8.3c-5.7-0.9-11-4.9-13.2-10.3c-0.5-1.2-1.7-2.1-3.1-1.7
									C176,217.1,174.9,218.6,175.4,219.8L175.4,219.8z"/>
							</g>
						</g>
					</g>
				</g>
			</g>
		</g>
	</g>
</g>
</svg>
