<?xml version="1.0" encoding="utf-8"?>
<!-- Generator: Adobe Illustrator 26.5.0, SVG Export Plug-In . SVG Version: 6.00 Build 0)  -->
<svg version="1.1" id="Layer_1" xmlns="http://www.w3.org/2000/svg" xmlns:xlink="http://www.w3.org/1999/xlink" x="0px" y="0px"
	 viewBox="0 0 500 500" style="enable-background:new 0 0 500 500;" xml:space="preserve">
<style type="text/css">
	.st0{fill:#A6E2E2;}
	.st1{fill:#FFFFFF;}
	.st2{fill:#D7F2ED;}
	.st3{fill:#2E303D;}
	.st4{fill:#FF9971;}
	.st5{fill:#F9785A;}
	.st6{fill:#8E8E8E;}
	.st7{fill:#B7B7B7;}
	.st8{fill:#D5E0E0;}
	.st9{fill:#27C8CC;}
	.st10{fill:#E56B45;}
	.st11{fill:#0CBCBC;}
	.st12{fill:#ED694F;}
	.st13{fill:#FF9076;}
</style>
<g id="BACKGROUND">
</g>
<g id="OBJECTS">
	<circle class="st0" cx="223.1" cy="218.8" r="165.6"/>
	<g>
		<g>
			<path class="st1" d="M247.1,280c0,0-46.2,56-62.5,54.6S157,305.8,157,305.8s0.6-0.3,1.5-0.9c4.8-2.8,19.5-12.2,22.9-22.1
				c3.3-5.4,27.6-44.7,34.9-54.7c7.9-10.8,17.3-11.2,17.3-11.2c5.3,8.6,11.9,15.2,20.1,16.5c1.1,0.2,2.2,0.3,3.3,0.3
				c0.5,3.5,3.8,21.5,19.9,30.7c0,0,0.6-12.5,8.9-13.6c0,0,8.8-4.8,16,2.2c0,0,11.5-12.3,0-46.8l-8.2-7.4l0,0l-3.8-8.9
				c0,0,41.9-2.1,51.5,6.9c9.7,9,71.6,90.9,71.6,90.9L323,357.5C323,357.5,268.4,303.4,247.1,280z"/>
			<path class="st2" d="M301.9,206.2c11.5,34.5,0,46.8,0,46.8c-7.2-7-16-2.2-16-2.2l11.7-42.8l-3.9-9.2L301.9,206.2z"/>
			<path class="st2" d="M273.8,242.8l12.1,8c-8.3,1.1-8.9,13.6-8.9,13.6c-16.1-9.2-19.4-27.1-19.9-30.7c1,0.1,2,0,3,0L273.8,242.8z"
				/>
			<path class="st3" d="M246.8,279.6c-5-6.2-10.1-12.4-15.1-18.7c-0.4-0.5-1.1,0.2-0.7,0.7c5,6.2,10.1,12.4,15.1,18.7
				C246.5,280.8,247.2,280.1,246.8,279.6z"/>
			<path class="st3" d="M242.4,280.8c-3.6-1.5-7.1-3.1-10.7-4.6c-0.6-0.3-1.1,0.6-0.5,0.9c3.6,1.5,7.1,3.1,10.7,4.6
				C242.4,281.9,242.9,281,242.4,280.8z"/>
			<path class="st3" d="M322,309.3c-4.5-7.5-9.1-15-13.6-22.5c-4.5-7.5-9-14.9-13.5-22.4c-2.6-4.2-5.1-8.5-7.7-12.7
				c-0.3-0.6-1.2,0-0.9,0.5c4.5,7.5,9.1,15,13.6,22.5c4.5,7.5,9,14.9,13.5,22.4c2.6,4.2,5.1,8.5,7.7,12.7
				C321.4,310.4,322.3,309.9,322,309.3z"/>
		</g>
		<g>
			<path class="st4" d="M182.2,279.1c-0.1,1.2-0.3,2.5-0.7,3.7c-3.4,10-18.1,19.3-22.9,22.1l-1.5-5.5c0,0-7.8,1.7-13.4-3.2
				c-0.1,0.3-0.4,0.5-0.7,0.7c-0.8,0.5-1.8,0.5-2.8,0.4c-4.2-0.4-8.4-2-11.8-4.6c-2-1.5-3.8-3.6-4.3-6c-0.5-2.3,0.4-5.1,2.4-6.2
				c-0.1-0.4-0.1-0.8-0.2-1.1c-0.1-2.2,1.1-4.2,2.6-5.8c1.4-1.4,3.2-2.4,5-3.4c0-0.1,0-0.2,0.1-0.2c0.4-1.5,1.5-2.8,2.8-3.8
				c1.2-0.9,2.5-1.5,3.8-2.1c-6.4-3.3-12.6-7-11.9-8.6c1.2-3.3,14.4-2.1,27.7,2.5c13.3,4.7,17.6,11.6,17.6,11.6
				C178.1,267.8,182.6,268.1,182.2,279.1z"/>
			<path class="st3" d="M177.3,281c-3.1,1.3-6.2,2.7-9.3,4c-1.6,0.7-3.1,1.3-4.7,2c-1.3,0.6-2.9,1.5-4.3,1c-1.6-0.5-1.6-2.2-1-3.5
				c0.6-1.2,1.5-2.4,2.4-3.5c1.7-2.1,3.6-4.1,5.7-5.8c2.4-2,5.1-3.7,8-5.1c0.6-0.3,0.1-1.1-0.5-0.9c-5.5,2.6-10.4,6.5-14.1,11.3
				c-1.5,1.9-4.2,5.2-2,7.5c1,1.1,2.6,1.1,3.9,0.7c1.6-0.5,3.2-1.3,4.7-2c3.9-1.7,7.8-3.3,11.7-5C178.4,281.6,177.9,280.7,177.3,281
				z"/>
			<path class="st3" d="M152.9,271c-3.9-2.3-7.8-4.6-11.6-6.9c-0.6-0.3-1.1,0.5-0.5,0.9l11.6,6.9C153,272.2,153.5,271.3,152.9,271z"
				/>
			<path class="st3" d="M154.7,289.7c-0.1-0.9-0.5-1.8-0.9-2.7c-0.4-1-0.8-1.9-1.2-2.9c-1.8-4.4-3.7-8.8-5.5-13.2
				c-0.2-0.6-1.2-0.3-1,0.3c1.5,3.6,3,7.1,4.5,10.7c0.8,1.8,1.5,3.6,2.3,5.4c0.5,1.1,1.9,4-0.2,4.4c-1.4,0.3-3.1-1.1-4.1-1.8
				c-1.2-0.9-2.4-1.8-3.5-2.9c-2.2-2-4.2-4.4-5.9-6.9c-1.9-2.9-3.3-6-4.3-9.2c-0.2-0.6-1.2-0.4-1,0.3c1.9,6.3,5.6,12.1,10.5,16.5
				c1.2,1.1,2.4,2.1,3.7,3c1.2,0.9,2.7,2,4.3,2C154,292.8,154.9,291.3,154.7,289.7z"/>
			<path class="st3" d="M146.3,290.3c-0.4-0.5-1.3,0-0.9,0.5c0.7,0.9,0.7,2.1,0,3c-0.8,0.8-2,0.9-3,0.4c-1-0.5-1.9-1.2-2.8-1.9
				c-0.9-0.7-1.8-1.5-2.7-2.2c-3.5-3-6.7-6.3-9.6-9.9c-0.4-0.5-1.1,0.2-0.7,0.7c2.7,3.3,5.6,6.4,8.7,9.2c1.5,1.4,3.1,2.7,4.8,3.9
				c1.4,1.1,3.3,2.1,5.1,1.1C147.1,294.1,147.5,291.8,146.3,290.3z"/>
		</g>
		<g>
			<path class="st4" d="M297.6,208l-11.7,42.8l-12.1-8c12.5-17.7,10-38.7,10-38.7s-1.9,28.3-23.8,29.6c-0.9,0.1-1.9,0.1-3,0
				c-1-0.1-2.1-0.2-3.3-0.3c-8.2-1.2-14.9-7.8-20.1-16.5c-10.4-17.2-15.5-42.5-16.9-50.2c12.3-1.6,24.3-6.8,35.9-11.4
				c3.6-1.4,7.4-2.9,11.3-2.4c4,0.4,7.5,2.8,10.2,5.8c2.3,2.6,4.1,5.7,5.7,8.8c0.5-2.8,2.4-11.3,8.8-8.8c0.7,0.3,1.4,0.7,2,1.3
				c5.3,5.4,3.4,22-2.7,25.4l2,4.7l3.8,8.9l0,0L297.6,208z"/>
			<path class="st3" d="M283.8,204.1c0,0,2.4,21-10,38.7l-13.8-9.1C281.9,232.4,283.8,204.1,283.8,204.1z"/>
			<path class="st3" d="M289.6,144.7c-0.6-3.8-1.5-7.7-4-10.5c-2.2-2.6-6.1-3.9-9.2-2.7c0.9-3.4,0.5-7-1.3-10.1
				c-1.8-3.1-4.8-5.5-8.3-6.4c-8.5-2.2-16.2,3.4-23.1,7.4c-3.7,2.2-7.5,3.9-11.7,4.9c-4.1,1-8.3,1.2-12.4,0.8
				c-2.1-0.2-4.2-0.6-6.2-1.2c-2-0.5-4.1-1.2-6.2-1.3c-3.5-0.3-7.1,1.1-8.5,4.5c-1.3,3.2-0.6,7,0.6,10.1c0.9,2.2,2.2,4.2,3.8,6
				c-3.8-0.4-7.9,1.6-9.8,4.9c-2.2,3.8-1.4,9.1,1.8,12.1c2.8,2.6,6.7,3.5,10.5,3.8c3.8,0.3,7.6,0.1,11.4-0.4
				c12.3-1.6,24.3-6.8,35.9-11.4c3.6-1.4,7.4-2.9,11.3-2.4c4,0.4,7.5,2.8,10.2,5.8c2.3,2.6,4.1,5.7,5.7,8.8
				c0.5-2.8,2.4-11.3,8.8-8.8c0.7,0.3,1.4,0.7,2,1.3C290.7,154.7,290.3,149.7,289.6,144.7z M268.3,120.1c-4.8-1.7-10.1-0.6-14.8,1.4
				c-4.7,2-8.9,4.9-13.6,6.8c-8.6,3.5-18.4,3.9-27.1,0.8c-3.2-1.1-6.8-2.7-9.9-1.3c-2.4,1-3.8,3.6-4.1,6.3c0-0.6,0-1.2,0.1-1.8
				c0.3-1.6,1-3.1,2.3-4.2c1.4-1.1,3.2-1.5,5-1.5c2.1,0,4.1,0.6,6,1.1c1.9,0.5,3.9,1,5.8,1.2c7.7,1,15.6-0.3,22.5-3.7
				c7.1-3.5,13.6-9.5,21.9-9.8c3.7-0.1,7.3,1.2,9.9,3.9c2.6,2.7,3.8,6.6,3.3,10.3c0,0.1-0.1,0.3-0.1,0.4
				C275.8,125.9,272.5,121.6,268.3,120.1z"/>
			<path class="st1" d="M268.5,204.4c0,0,5.6,10.2-2.9,16.1c-8.5,5.9-14.5-2.5-14.5-2.5L268.5,204.4z"/>
			<path class="st5" d="M239.6,186l11.5,22.9c0,0-9.4,5.3-11.5,2.2C237.4,208.1,239.6,186,239.6,186z"/>
			<path class="st3" d="M235.4,191.2c0.9,3-0.1,5.9-2.2,6.5s-4.5-1.3-5.4-4.3c-0.9-3,0.1-5.9,2.2-6.5
				C232.1,186.3,234.5,188.2,235.4,191.2z"/>
			<path class="st3" d="M259.7,183c0.9,3-0.1,5.9-2.2,6.5s-4.5-1.3-5.4-4.3c-0.9-3,0.1-5.9,2.2-6.5C256.4,178,258.8,180,259.7,183z"
				/>
			<path class="st3" d="M230.3,179.1c-1.9,0.5-3.7,1.2-5.4,2.1c-0.9,0.5-1.2,1.9-0.6,2.8c0.6,0.9,1.8,1.2,2.8,0.6
				c0.4-0.2,0.9-0.4,1.3-0.6c1-0.4,2.1-0.8,3.2-1.1c1-0.2,1.7-1.5,1.4-2.5C232.4,179.3,231.4,178.8,230.3,179.1z"/>
			<path class="st3" d="M258.8,172.3c-0.4-0.4-0.9-0.5-1.4-0.5c-2.4-0.2-4.9,0.1-7.2,1.1c-0.5,0.2-0.9,0.5-1.2,1
				c-0.2,0.4-0.3,1.1-0.2,1.5c0.3,0.9,1.4,1.8,2.5,1.4c0.9-0.4,1.9-0.6,2.9-0.8c1.1-0.1,2.2-0.2,3.3-0.1c0.5,0,1.1-0.3,1.4-0.6
				c0.3-0.4,0.6-0.9,0.5-1.4C259.4,173.2,259.2,172.7,258.8,172.3z"/>
			<path class="st3" d="M276.1,114.7c-0.3-0.6-1.1-0.1-0.9,0.5c1.9,4.3,2.8,9,2.7,13.7c0,0.6,1,0.6,1,0
				C279,123.9,278,119.1,276.1,114.7z"/>
			<path class="st3" d="M280.7,123.3c-0.4,1.8-0.9,3.5-1.3,5.3c-0.2,0.6,0.8,0.9,1,0.3c0.4-1.8,0.9-3.5,1.3-5.3
				C281.8,122.9,280.8,122.6,280.7,123.3z"/>
		</g>
	</g>
	<g>
		<g>
			<polygon class="st6" points="273.9,419.4 273.9,425.8 184.6,425.8 116.6,388.9 116.6,383.1 185.9,419.4 			"/>
			<polygon class="st7" points="273.9,419.4 185.9,419.4 116.6,383.1 204.6,383.1 			"/>
			<polygon class="st6" points="195.2,416.6 184.4,416.6 175.9,412.2 186.7,412.2 			"/>
			<polygon class="st6" points="183.8,410.7 173,410.7 164.4,406.2 175.3,406.2 			"/>
			<polygon class="st6" points="174.1,404.9 163.3,404.9 154.8,400.5 165.6,400.5 			"/>
			<polygon class="st6" points="162.7,398.9 151.9,398.9 143.3,394.5 154.1,394.5 			"/>
			<polygon class="st6" points="208.3,415.8 197.5,415.8 188.9,411.3 199.8,411.3 			"/>
			<polygon class="st6" points="198.6,410 187.8,410 179.3,405.6 190.1,405.6 			"/>
			<polygon class="st6" points="187.2,404.1 176.4,404.1 167.8,399.6 178.7,399.6 			"/>
			<polygon class="st6" points="210.7,409 199.8,409 191.3,404.5 202.1,404.5 			"/>
			<polygon class="st6" points="201,403.2 190.2,403.2 181.6,398.8 192.5,398.8 			"/>
			<polygon class="st6" points="189.6,397.2 178.7,397.2 170.2,392.8 181,392.8 			"/>
			<polygon class="st6" points="250.6,417.2 239.7,417.2 231.2,412.7 242,412.7 			"/>
			<polygon class="st6" points="239.1,411.2 228.3,411.2 219.8,406.7 230.6,406.7 			"/>
			<polygon class="st6" points="229.4,405.5 218.6,405.5 210.1,401 220.9,401 			"/>
			<polygon class="st6" points="218,399.5 207.2,399.5 198.6,395 209.5,395 			"/>
			<polygon class="st6" points="263.6,416.3 252.8,416.3 244.3,411.8 255.1,411.8 			"/>
			<polygon class="st6" points="253.9,410.6 243.1,410.6 234.6,406.1 245.4,406.1 			"/>
			<polygon class="st6" points="242.5,404.6 231.7,404.6 223.1,400.1 234,400.1 			"/>
		</g>
		<g>
			<polygon class="st8" points="330,450.1 242.1,450.1 197.2,426.6 285.1,426.6 			"/>
			<polygon class="st9" points="269.1,447.3 243.5,447.3 230.4,440.5 256,440.5 			"/>
			<g>
				<path class="st7" d="M277,446.9c-0.2,0-0.3,0-0.5-0.1l-30.3-15.9c-0.5-0.3-0.7-0.9-0.4-1.4c0.3-0.5,0.9-0.7,1.4-0.4l30.3,15.9
					c0.5,0.3,0.7,0.9,0.4,1.4C277.8,446.7,277.4,446.9,277,446.9z"/>
			</g>
			<g>
				<path class="st7" d="M287.2,446.3c-0.2,0-0.3,0-0.5-0.1l-30.3-15.9c-0.5-0.3-0.7-0.9-0.4-1.4c0.3-0.5,0.9-0.7,1.4-0.4l30.3,15.9
					c0.5,0.3,0.7,0.9,0.4,1.4C288,446.1,287.6,446.3,287.2,446.3z"/>
			</g>
			<g>
				<path class="st7" d="M301.1,447.2c-0.2,0-0.3,0-0.5-0.1l-30.3-15.9c-0.5-0.3-0.7-0.9-0.4-1.4c0.3-0.5,0.9-0.7,1.4-0.4l30.3,15.9
					c0.5,0.3,0.7,0.9,0.4,1.4C301.8,447,301.5,447.2,301.1,447.2z"/>
			</g>
			<g>
				<path class="st7" d="M311.3,446.6c-0.2,0-0.3,0-0.5-0.1l-30.3-15.9c-0.5-0.3-0.7-0.9-0.4-1.4c0.3-0.5,0.9-0.7,1.4-0.4l30.3,15.9
					c0.5,0.3,0.7,0.9,0.4,1.4C312,446.4,311.7,446.6,311.3,446.6z"/>
			</g>
		</g>
	</g>
	<g>
		<path class="st0" d="M403,181.3l17.1-8.9c6.8,1.8,14.2,1.7,21.4-0.7c19.9-6.6,30.7-28,24.1-47.9s-28-30.7-47.9-24.1
			c-19.9,6.6-30.7,28-24.1,47.9c1.9,5.8,5.1,10.7,9,14.8L403,181.3z"/>
		<g>
			<polygon class="st6" points="440.3,162 440.3,164.5 438.2,164.5 423.8,164.5 421.5,164.5 421.5,157.4 			"/>
			<path class="st7" d="M423.8,164.5h14.4c0,0-0.3,3-7.3,3C424,167.5,423.8,164.5,423.8,164.5z"/>
			<polygon class="st7" points="440.3,155.2 440.3,162 421.5,157.4 421.5,155.2 422.9,155.2 439.4,155.2 			"/>
			<path class="st9" d="M453.3,125.5c0,8.2-4.4,15.3-11,19.2l-2.9,10.6h-16.5l-2.9-10.6c-6.6-3.8-11-11-11-19.2
				c0-12.3,9.9-22.2,22.2-22.2C443.4,103.3,453.3,113.2,453.3,125.5z"/>
			<path class="st1" d="M422.2,130.6c-0.1-0.5-0.9-0.3-0.8,0.2c1.2,7.9,2.5,15.9,3.7,23.8c0.1,0.5,0.9,0.3,0.8-0.2
				C424.7,146.5,423.5,138.6,422.2,130.6z"/>
			<path class="st1" d="M439.8,129.8c-1.3,8.4-2.7,16.7-4,25.1c-0.1,0.5,0.7,0.8,0.8,0.2c1.3-8.4,2.7-16.7,4-25.1
				C440.7,129.5,439.9,129.3,439.8,129.8z"/>
			<path class="st1" d="M442.1,135.9c-0.6,1.7-2.6,2.9-4.4,2.5c-1.5-0.3-2.7-1.4-3.5-2.8c0.8-1.1,1.3-2.3,1.6-3.5
				c0.3-1.2,0.4-2.5,0.2-3.8c-0.1-1-0.6-2.2-1.7-2.3c-1.3-0.2-2,1.1-2.2,2.2c-0.3,1.4-0.3,2.8,0,4.2c0.2,1.1,0.5,2.2,1.1,3.2
				c-0.1,0.1-0.2,0.3-0.3,0.4c-0.7,0.8-1.6,1.5-2.7,1.6c-1.1,0.1-1.8-0.6-2.3-1.4c0.6-0.8,0.9-1.8,1.1-2.7c0.3-1.4,0.4-2.9,0.3-4.3
				c-0.1-1.1-0.8-2.4-2.1-2c-1.3,0.4-1.5,2-1.6,3.2c-0.1,1.3,0.1,2.7,0.5,4c0.2,0.6,0.5,1.3,0.8,1.9c-0.5,0.6-1.2,1.1-2.2,1.2
				c-2.5,0.4-3.5-2.2-3.9-4.1c-0.1-0.5-0.9-0.3-0.8,0.2c0.5,2.2,1.6,4.8,4.2,4.8c1.3,0,2.3-0.6,3.1-1.4c0.2,0.3,0.4,0.5,0.7,0.8
				c1,0.9,2.3,1,3.4,0.5c0.9-0.4,1.7-1,2.3-1.7c0.8,1.2,1.8,2.1,3.1,2.6c2.5,0.9,5.3-0.5,6.2-2.9
				C443.1,135.6,442.3,135.4,442.1,135.9z M426.4,129.6c0.1-0.5,0.2-1.2,0.6-1.6c0.5-0.5,1.1-0.2,1.3,0.4c0.2,0.5,0.1,1.2,0.1,1.7
				c0,0.6,0,1.2-0.1,1.8c-0.1,1.1-0.4,2.3-1,3.4C426.4,133.6,426.1,131.5,426.4,129.6z M433.6,134.7c-0.9-2-1.2-4.4-0.7-6.5
				c0.1-0.5,0.3-1.1,0.9-1.2c0.5-0.2,0.9,0.3,1,0.7c0.4,0.9,0.4,2,0.3,2.9c-0.1,1.5-0.6,3-1.5,4.3
				C433.7,134.7,433.7,134.7,433.6,134.7z"/>
		</g>
	</g>
	<g>
		<path class="st1" d="M189,186.9l-17.8,2.8c-4.1,5.1-9.8,9.1-16.5,11.3c-18.6,6.1-38.6-4.1-44.6-22.7s4.1-38.6,22.7-44.6
			c18.6-6.1,38.6,4.1,44.6,22.7c1.8,5.4,2.1,10.9,1.4,16.1L189,186.9z"/>
		<polygon class="st9" points="171.9,156 138.7,189.1 120.7,171.1 129.4,162.3 138.7,171.6 163.1,147.2 		"/>
	</g>
	<g>
		<g>
			<path class="st4" d="M379.1,265.7L356.5,291l-5.8,15.6l-1.2-14.6l-2.4-17.8l0.2-3.3l1.4-18.6c-3.8,0.4-7.4,0.2-10.8-0.4
				c-13.5-2.4-23.8-12.7-25.1-35c-0.8-13.6,0.9-23.8,3.2-31.2c3.3-10.8,8-15.5,8-15.5s16.9,28.3,39.3,31.4c0,0,4.1-9.7,10.5-6.8
				c6.4,2.9,6.4,22.1-3.7,24.6c-1.3,13.3,0.6,26.9,5.6,39.4C376.6,261.2,377.7,263.5,379.1,265.7z"/>
			<circle class="st5" cx="357" cy="218.8" r="9"/>
			<path class="st3" d="M360.1,250.1l-12,12l0.7-9.7C352.5,252,356.3,251.2,360.1,250.1z"/>
			<path class="st3" d="M348.1,262l-0.6,8.9c0,0-13,5.8-18.9,19.6c-1.3-4.2-1.1-8.8-0.2-13c1-4.8,3-9.3,5-13.8
				c1.7-3.8,3.5-7.7,4.6-11.7c3.4,0.6,7.1,0.7,10.8,0.4L348.1,262z"/>
			<path class="st5" d="M326.6,205.9l5.1,21.7c0,0-9,2.7-10.1,0.6C320.5,226,326.6,205.9,326.6,205.9z"/>
			<path class="st3" d="M452.9,270.4c-2.7-11-9.2-20.5-16.6-28.8c-6-6.7-12.7-12.8-19-19.3c-2-3.2-3.8-6.5-5.5-9.9
				c-6.2-12.8-9.5-26.9-15.8-39.6c-6.4-12.7-17.1-24.5-31.1-26.7c-20.6-3.2-40.3,15.1-60.8,11.2c-0.8,10.4,3.5,21.1,11.3,28.1
				l0.8,0.2c2.9-9.3,6.7-14,7.7-15.2c1.2,6.1,5.5,11.2,9.7,15.7c4.9,5.2,10.5,10.1,17.2,12.8c2.9,1.2,6,1.9,9.1,2
				c1.1,0.3,2.3,0.5,3.5,0.7c0,0,4.1-9.7,10.5-6.8c6.4,2.9,6.4,22.1-3.7,24.6c-1.3,13.3,0.6,26.9,5.6,39.4c1,2.4,2.1,4.8,3.5,6.9
				c0.9,1.3,1.9,2.6,3,3.6v0c0.4,0.4,0.8,0.8,1.3,1.1c8.8,6.7,21.7,2.7,32.1,6.6c9.6,3.6,15.5,13.7,17.1,23.8
				c1.6,10.1-0.5,20.4-2.5,30.5l0.2,0.1c0.2-0.6,0.4-1.2,0.6-1.8c13.4-4.8,21.4-19.3,22-33.7C454.8,287.5,454.9,278.7,452.9,270.4z
				 M343,193.5c-2.8-2-5.4-4.4-7.8-6.9c-2.4-2.4-4.7-5-6.7-7.8c-1.5-2.1-2.7-4.4-3.4-6.9c3.5,5.2,14.7,20.8,29.5,27.2
				C350.4,198.1,346.5,196,343,193.5z M452.8,290.8c-1-14.5-8-28-16.1-40.1c-5.5-8.3-11.6-16.2-17-24.5c3.9,3.8,7.8,7.6,11.5,11.5
				c7.9,8.2,15.5,17.4,19.3,28.4C453.3,274,454,282.5,452.8,290.8z"/>
			<path class="st3" d="M322.9,206.1c0,3.1-1.8,5.7-3.9,5.7s-3.9-2.5-3.9-5.7s1.8-5.7,3.9-5.7C321.1,200.5,322.9,203,322.9,206.1z"
				/>
			<path class="st3" d="M343.2,205.3c0,3.1-1.8,5.7-3.9,5.7s-3.9-2.5-3.9-5.7s1.8-5.7,3.9-5.7S343.2,202.2,343.2,205.3z"/>
			<path class="st3" d="M321.5,193.1c-1.9-0.1-3.9,0.1-5.8,0.5c-1,0.2-1.7,1.5-1.4,2.5c0.3,1.1,1.4,1.6,2.5,1.4
				c0.5-0.1,0.9-0.2,1.4-0.3c1.1-0.1,2.2-0.2,3.3-0.1c1,0.1,2-1,2-2C323.4,194,322.6,193.1,321.5,193.1z"/>
			<path class="st3" d="M345.4,194.9c-0.3-0.5-0.7-0.7-1.2-0.9c-2.3-0.9-4.8-1.3-7.2-1c-0.5,0.1-1,0.2-1.4,0.6
				c-0.3,0.3-0.6,0.9-0.6,1.4c0,1,0.9,2.1,2,2c1-0.1,2-0.1,3,0c1.1,0.2,2.1,0.4,3.1,0.9c0.4,0.2,1.1,0,1.5-0.2
				c0.4-0.2,0.8-0.7,0.9-1.2C345.7,195.9,345.7,195.3,345.4,194.9z"/>
			<path class="st10" d="M346.9,235c1.5,3.6,0.1,7.5-3,8.8c-3.1,1.3-6.8-0.6-8.3-4.2s-0.1-7.5,3-8.8S345.4,231.4,346.9,235z"/>
			<path class="st1" d="M348,230c0,0,3,8.6-5.6,11.4c-7,2.3-10-2.3-10.8-3.9L348,230z"/>
		</g>
		<g>
			<path class="st9" d="M430.1,331.3l0.2,0.1c-2.8,8.6-5.9,17.3-9.1,25.5v0c-9.9,25.2-20,45.8-20.3,46.4
				c-9.7-13.5-27.9-22.4-33.8-25c-1.2-0.5-1.9-0.8-1.9-0.8l-3.7,11.1c0.3,0.3,0.6,0.6,0.9,0.9l-33.6,4.5V380c0,0-0.8-1.8-2.1-4.7
				c-1.7-3.9-4.1-9.8-6.1-15.7c-2.2-6.5-4-13-3.8-17.1c0.6-10.4,23.3-50.4,23.3-50.4c0,5.8,1.3,10.4,1.3,10.4c0.1-0.6,0.3-1.3,0.7-2
				c0.1,0.4,3.3,13.7,9.3,23.8l12.8-21.8c0.5,1.4,1,2.9,1.5,4.6c0,0,14.2-23,16.4-37.8c0.4,0.4,0.8,0.8,1.3,1.1
				c8.8,6.7,21.7,2.7,32.1,6.6c9.6,3.6,15.5,13.7,17.1,23.8C434.2,310.9,432.1,321.2,430.1,331.3z"/>
			<path class="st9" d="M421.2,356.8l6,52.6h-27l2.2-3.9c-0.5-0.8-1-1.6-1.6-2.3C401.1,402.6,411.3,382,421.2,356.8z"/>
			<path class="st11" d="M400.8,403.2c0.6,0.8,1.1,1.5,1.6,2.3l-2.2,3.9l-11.3,19.6c0,0-4-18.7-26.5-39.7c-0.3-0.3-0.6-0.6-0.9-0.9
				l3.7-11.1c0,0,0.7,0.3,1.9,0.8C372.9,380.8,391.1,389.8,400.8,403.2z"/>
			<path class="st4" d="M388.9,429.1c0,0-25.8,0.5-98-3.7c0,0-16.9,11.7-23.7,10.9c-6.9-0.7-20.4-13.4-23.7-18.7
				c-3.3-5.3,5.4-13.2,5.4-13.2s0.1-4,5.6-6.3c2.4-1,9.1-0.9,15.8-0.4c8.3,0.6,16.6,1.7,16.6,1.7l20.1-2.7l21.9-2.9l33.6-4.5
				C384.9,410.4,388.9,429.1,388.9,429.1z"/>
			<path class="st1" d="M382.1,269.3L382.1,269.3c-2.2,14.9-16.4,37.8-16.4,37.8c-0.5-1.7-1-3.2-1.5-4.6c-3.4-8.9-7.6-11.5-7.6-11.5
				l22.6-25.3C380,267,381,268.2,382.1,269.3z"/>
			<path class="st2" d="M364.2,302.6l-12.8,21.8c-6-10.1-9.2-23.3-9.3-23.8c0,0,0,0,0,0c2-4.1,7.5-8.6,7.5-8.6l1.2,14.6l5.8-15.6
				C356.5,291,360.8,293.7,364.2,302.6z"/>
			<path class="st1" d="M340,355.2h7.9h7.7l0.6,32h-23.1l-0.5-32H340z M350.8,373.3v-15h-12.5v15H350.8z"/>
			<rect x="338.2" y="358.3" class="st9" width="12.5" height="15"/>
			<path class="st1" d="M347.2,274.2l2.4,17.8c0,0-5.5,4.5-7.5,8.6c0,0,0,0,0,0c-0.3,0.7-0.6,1.3-0.7,2c0,0-1.3-4.7-1.3-10.4
				C340,286,341.4,278.6,347.2,274.2z"/>
			<polygon class="st7" points="344.1,350.4 347.9,355.2 340,355.2 			"/>
			<path class="st9" d="M328.5,290.5c6-13.8,18.9-19.6,18.9-19.6l-0.2,3.3c-5.8,4.4-7.2,11.8-7.1,17.9c0,0-22.7,40-23.3,50.4
				c-0.2,4,1.5,10.6,3.8,17.1l-1.4,0.3l-9.8-4.7l0.3-0.6c0,0,12.4-44,17.4-60.4C327.5,292.9,328,291.6,328.5,290.5z"/>
			<path class="st4" d="M328.7,380v13.9l-21.9,2.9l-66.7-0.1c-11.3,4.9-17.1,5.1-21.5,2.9c-1.8,0.1-8.5,0.9-10.2,1
				c-0.2,1.9-0.8,3.6-2.4,3.6c-3.6,0-7.6-8.1-7.6-8.1s-1.1,8.1-4.7,6.1c-3.6-2-2.6-13-2.6-13s-8.2,8-9.3,5
				c-1.1-3,4.3-17.5,17.8-18.7s43.9,4.2,43.9,4.2l60.4-10.1l22.8,5.7C327.9,378.2,328.7,380,328.7,380z"/>
			<path class="st11" d="M326.7,375.3l-22.8-5.7c-1.4-11.2,2.3-15.9,2.3-15.9l3.2,1.6l11.1,4.4l0,0
				C322.6,365.5,325,371.4,326.7,375.3z"/>
			<g>
				<path class="st12" d="M280.8,375.2c1.4,1,1.8,2.9,1,4.4c-7-0.9-8.7-4.1-8.7-4.1c0.6-1,1.7-2.1,2.9-2.2
					C277.3,373.3,279.1,374,280.8,375.2z"/>
				<path class="st13" d="M281.8,379.6l-4.3,7.4c-5.6-0.8-8.6-4.5-8.6-4.5l4.1-7C273,375.5,274.7,378.7,281.8,379.6z"/>
				<path class="st9" d="M277.5,387l-6.6,11.5l-11.3-0.2l9.4-15.7C268.9,382.5,271.9,386.2,277.5,387z"/>
			</g>
			<path class="st3" d="M386.8,308.1c-2.7,8.6-5.5,17.3-8.2,25.9c-2.7,8.6-5.5,17.2-8.2,25.8c-1.5,4.9-3.1,9.8-4.6,14.6
				c-0.2,0.6,0.8,0.9,1,0.3c2.7-8.6,5.5-17.3,8.2-25.9c2.7-8.6,5.5-17.2,8.2-25.8c1.5-4.9,3.1-9.8,4.6-14.6
				C387.9,307.7,386.9,307.5,386.8,308.1z"/>
			<path class="st3" d="M420.7,358.2c-5.7,11.4-11,23.1-15.8,35c-1.4,3.3-2.7,6.7-3.9,10.1c-0.2,0.6,0.7,0.9,1,0.3
				c4.5-11.9,9.5-23.6,14.9-35.1c1.5-3.3,3.1-6.5,4.8-9.7C421.8,358.1,420.9,357.6,420.7,358.2z"/>
			<path class="st3" d="M338.7,293.3c-4.8,8.8-9.6,17.6-14.2,26.5c-4.2,8-7.8,16.6-7.8,25.8c0,4.8,1.1,9.6,3.4,13.7
				c0.3,0.6,1.2,0.1,0.9-0.5c-4.3-7.6-3.9-16.9-1.4-25c1.3-4.4,3.3-8.6,5.3-12.6c2.2-4.3,4.5-8.4,6.8-12.7c2.6-4.9,5.3-9.8,8-14.7
				C339.9,293.2,339,292.7,338.7,293.3z"/>
			<path class="st3" d="M364.1,303.7c-5.4,12.2-10.8,24.4-16.2,36.7c-1.3,3-2.6,6-3.9,8.9c-2-12.2-2.9-24.5-2.6-36.9
				c0.1-3.7,0.3-7.3,0.6-11c0.1-0.6-0.9-0.6-1,0c-1.1,13-0.9,26.1,0.7,39c0.4,3.5,0.9,7.1,1.6,10.6c0,0.1,0,0.2,0.1,0.3
				c0.1,0.2,0.2,0.3,0.3,0.3c0.2,0.1,0.4,0,0.5-0.2c0,0,0,0,0,0c0,0,0.1-0.1,0.1-0.2c5.4-12.2,10.8-24.3,16.1-36.5
				c1.5-3.5,3.1-7,4.6-10.5C365.3,303.6,364.4,303.1,364.1,303.7z"/>
			<path class="st3" d="M328,394.1c-7.1,0.7-14.2,1.4-21.3,2.1c-0.6,0.1-0.6,1.1,0,1c7.1-0.7,14.2-1.4,21.3-2.1
				C328.7,395,328.7,394,328,394.1z"/>
			<path class="st3" d="M229.2,395.9c-6,1.9-12.1,3.1-18.4,3.7c-0.7,0.1-1.4,0.1-2.1,0.2c-0.6,0-1.2,0.1-1.8,0
				c-0.5-0.1-1-0.3-0.9-0.9c0-0.7,0.9-1.3,1.4-1.7c2.1-1.9,4.2-3.7,6.6-5.3c2.6-1.8,5.4-3.4,8.3-4.7c0.6-0.3,0.1-1.1-0.5-0.9
				c-5.6,2.6-10.9,6.1-15.3,10.4c-0.8,0.8-1.9,2-1.1,3.2c0.6,0.9,1.8,1,2.8,0.9c3.4-0.1,6.8-0.6,10.1-1.2c3.9-0.7,7.6-1.6,11.4-2.8
				C230,396.7,229.8,395.7,229.2,395.9z"/>
			<path class="st3" d="M199,396c-1.3-4.4-1.3-9.1,0-13.5c0.2-0.6-0.8-0.9-1-0.3c-1.3,4.6-1.3,9.5,0,14.1
				C198.2,396.9,199.2,396.6,199,396z"/>
			<path class="st3" d="M195.2,380.8c-0.3-0.2-0.5,0-0.7,0.2c-1.9,2.4-3.1,5.3-3.7,8.3c-0.1,0.6,0.8,0.9,1,0.3
				c0.5-2.9,1.8-5.7,3.6-8.1C195.6,381.3,195.4,380.9,195.2,380.8z"/>
			<path class="st3" d="M349.2,292c-2.9,2.9-5.6,5.9-8.1,9.1c-0.4,0.5,0.3,1.2,0.7,0.7c2.5-3.2,5.2-6.2,8.1-9.1
				C350.3,292.2,349.6,291.5,349.2,292z"/>
			<path class="st3" d="M365.9,306.1c-1.7-5.7-4.6-11-8.6-15.4c-0.4-0.5-1.1,0.2-0.7,0.7c3.9,4.3,6.7,9.4,8.4,15
				C365.1,307,366,306.7,365.9,306.1z"/>
			<path class="st3" d="M351.6,307.4c0-0.6-1-0.6-1,0c0.2,4.4,0.4,8.9,0.6,13.3c0,0.6,1,0.6,1,0
				C351.9,316.3,351.7,311.9,351.6,307.4z"/>
			<path class="st3" d="M355.2,310c-0.3-0.6-1-0.9-1.6-0.6c-0.2,0.1-0.3,0.2-0.5,0.3c0,0,0,0-0.1,0c0,0,0,0.1-0.1,0.1
				c0,0.1-0.1,0.1-0.1,0.2c0,0,0,0.1,0,0.1c0,0,0,0.1,0,0.1c0,0.1-0.1,0.2-0.1,0.4c0,0,0,0,0,0c0,0,0,0.1,0,0.1c0,0.1,0,0.2,0,0.2
				c0,0,0,0.1,0,0.1c0,0.1,0.1,0.1,0.1,0.2c0,0.1,0.1,0.2,0.2,0.3c0,0,0,0,0,0.1c0,0,0.1,0.1,0.1,0.1c0,0,0.1,0.1,0.1,0.1
				c0,0,0.1,0,0.1,0c0.1,0,0.1,0,0.2,0.1c0.1,0,0.2,0.1,0.2,0.1c0.3,0,0.6,0,0.9-0.2c0.3-0.2,0.5-0.5,0.5-0.8
				C355.4,310.6,355.3,310.3,355.2,310z"/>
		</g>
	</g>
	<g>
		<polygon class="st6" points="100.1,398.5 97.2,423 148.3,419.8 148.3,430 73.8,438.4 53.6,423 76.7,368.4 84.9,348.8 105.5,354.2 
			102.9,375.5 		"/>
		<polygon class="st6" points="127.5,213.5 162,393.6 147.2,393.6 112.5,213.5 		"/>
		<polygon class="st7" points="148.3,419.8 97.2,423 100.1,398.5 		"/>
		<polygon class="st7" points="112.5,213.5 147.2,393.6 102.9,375.5 105.5,354.2 84.9,348.8 76.7,368.4 73,366.9 32.9,213.5 		"/>
		<path class="st3" d="M139.9,353.6c-1.9-11.3-3.9-22.5-5.9-33.8c-2-11.3-4.1-22.6-6.2-33.9c-2.1-11.2-4.3-22.5-6.5-33.7
			c-2.2-11.2-4.5-22.4-6.8-33.6c-0.3-1.4-0.6-2.8-0.9-4.2c-0.1-0.6-1.1-0.4-1,0.3c2.3,11.2,4.6,22.4,6.8,33.6s4.4,22.5,6.5,33.7
			c2.1,11.3,4.2,22.6,6.3,33.9c2,11.3,4,22.5,5.9,33.8s3.8,22.6,5.6,33.9c0.2,1.4,0.5,2.8,0.7,4.2c0.1,0.6,1.1,0.4,1-0.3
			C143.7,376.1,141.8,364.8,139.9,353.6z"/>
		<path class="st3" d="M99.3,353.8c-3,10.8-6.2,21.7-9.5,32.4c-3.3,10.7-6.7,21.4-10.2,32.1c-2,6-4,12-6.1,18
			c-0.2,0.6,0.8,0.9,1,0.3c3.7-10.6,7.2-21.3,10.6-32.1c3.4-10.7,6.7-21.4,9.9-32.2c1.8-6.1,3.5-12.2,5.3-18.3
			C100.5,353.4,99.5,353.2,99.3,353.8z"/>
	</g>
</g>
</svg>
